# xmcd CD database file
#
# Track frame offsets:
#	150
#	13699
#	23754
#	34588
#	44820
#	58216
#	71764
#	85255
#	99338
#	109036
#	122108
#	135093
#	147428
#	156485
#	169935
#	182166
#	192235
#	203452
#	215121
#	227651
#	240947
#	258090
#	268974
#	281295
#	303334
#	314497
#	329876
#
# Disc length: 4601 seconds
#
# Revision: 0
# Processed by: cddbd v1.5.2PL0 Copyright (c) Steve Scherf et al.
# Submitted via: CDex 1.70beta2
#
DISCID=8e11f71b
DTITLE=Nat King Cole - Bed Time CD 1
DYEAR=1900
DGENRE=Jazz
TTITLE0=Stomping at the Panama
TTITLE1=With plenty of money and you
TTITLE2=Don´t blame me
TTITLE3=Caravan
TTITLE4=Liza
TTITLE5=Blue Lou
TTITLE6=Two against one
TTITLE7=Moon song
TTITLE8=Rosetta
TTITLE9=Black spider stomp
TTITLE10=You´re my life
TTITLE11=Rib town shuffle
TTITLE12=Jivin´with the notes
TTITLE13=Blue because of you
TTITLE14=Bed time
TTITLE15=French toast
TTITLE16=B flat
TTITLE17=Honey suckle rose
TTITLE18=This side up
TTITLE19=Sweet Lorraine
TTITLE20=Fudge wudge
TTITLE21=Windy city booggie wogie
TTITLE22=Early morning blues
TTITLE23=Indiana
TTITLE24=Jumpin´at Capitol
TTITLE25=Embraceable you
TTITLE26=The man I love
EXTD=
EXTT0=
EXTT1=
EXTT2=
EXTT3=
EXTT4=
EXTT5=
EXTT6=
EXTT7=
EXTT8=
EXTT9=
EXTT10=
EXTT11=
EXTT12=
EXTT13=
EXTT14=
EXTT15=
EXTT16=
EXTT17=
EXTT18=
EXTT19=
EXTT20=
EXTT21=
EXTT22=
EXTT23=
EXTT24=
EXTT25=
EXTT26=
PLAYORDER=
